Coordinates
version=1
nRows=37
nColumns=38
inDegrees=no

Units are S.I. units (second, meters, Newtons, ...)
If the header above contains a line with 'inDegrees', this indicates whether rotational values are in degrees (yes) or radians (no).

endheader
time	pelvis_tilt	pelvis_list	pelvis_rotation	pelvis_tx	pelvis_ty	pelvis_tz	hip_flexion_r	hip_adduction_r	hip_rotation_r	knee_angle_r	ankle_angle_r	subtalar_angle_r	mtp_angle_r	hip_flexion_l	hip_adduction_l	hip_rotation_l	knee_angle_l	ankle_angle_l	subtalar_angle_l	mtp_angle_l	lumbar_extension	lumbar_bending	lumbar_rotation	arm_flex_r	arm_add_r	arm_rot_r	elbow_flex_r	pro_sup_r	wrist_flex_r	wrist_dev_r	arm_flex_l	arm_add_l	arm_rot_l	elbow_flex_l	pro_sup_l	wrist_flex_l	wrist_dev_l
2.14	-0.311411	-0.0086899	-0.0706157	0.941445	0.988266	-0.338169	0.371116	0.17255	0.197441	-0.611106	0.401915	0	0	1.04516	-0.129281	-0.06173	-1.55075	0.0954555	0	0	0.0415548	0.0292528	0.26045	-0.237528	-0.3608	-0.124139	1.9093	1.82192	0	0	-0.622585	-0.239701	-0.0312257	1.82875	1.7797	0	0
2.15	-0.306917	-0.00505625	-0.0635307	0.94318	0.996471	-0.337344	0.309585	0.158605	0.19435	-0.563005	0.347376	0	0	1.04255	-0.125887	-0.0743753	-1.47368	0.101539	0	0	0.0409116	0.0181386	0.265702	-0.226086	-0.353926	-0.112331	1.9507	1.83431	0	0	-0.646829	-0.241101	-0.0449359	1.86464	1.77979	0	0
2.16	-0.313597	-0.00383144	-0.0590219	0.94443	1.00384	-0.336144	0.266353	0.150362	0.192624	-0.522886	0.278337	0	0	1.04768	-0.133477	-0.0965632	-1.39071	0.106582	0	0	0.0534231	0.0109807	0.272178	-0.220287	-0.347039	-0.101944	1.99265	1.87056	0	0	-0.672625	-0.241425	-0.0588056	1.89801	1.78883	0	0
2.17	-0.312439	-0.00350502	-0.0491133	0.94618	1.01176	-0.33554	0.216581	0.139833	0.176944	-0.481988	0.201069	0	0	1.03847	-0.132785	-0.117409	-1.30043	0.11455	0	0	0.0556797	0.00397001	0.271879	-0.214669	-0.341753	-0.0899344	2.03405	1.88865	0	0	-0.69462	-0.239849	-0.07142	1.92755	1.78811	0	0
2.18	-0.310196	-0.00305092	-0.0372903	0.948103	1.01943	-0.335555	0.170328	0.129355	0.154551	-0.446603	0.123624	0	0	1.02416	-0.122093	-0.132432	-1.20467	0.12048	0	0	0.0562337	-0.00234479	0.26919	-0.212305	-0.338066	-0.078658	2.07551	1.89508	0	0	-0.713789	-0.236712	-0.0822141	1.95292	1.78538	0	0
2.19	-0.312373	-0.00480105	-0.0230203	0.950167	1.02618	-0.336328	0.133702	0.122313	0.127681	-0.417359	0.0407295	0	0	1.01071	-0.106523	-0.142705	-1.10451	0.127544	0	0	0.0627019	-0.00437813	0.26409	-0.215737	-0.335547	-0.0722356	2.11634	1.93864	0	0	-0.731412	-0.231982	-0.0911899	1.973	1.7874	0	0
2.2	-0.309822	-0.00567991	-0.00764236	0.952713	1.03262	-0.337859	0.0966991	0.114756	0.0984148	-0.395475	-0.0331008	0	0	0.988343	-0.080552	-0.14257	-1.00066	0.131546	0	0	0.0638662	-0.00606751	0.258121	-0.222012	-0.334794	-0.0655271	2.15424	1.94971	0	0	-0.745151	-0.225749	-0.0984024	1.98899	1.78559	0	0
2.21	-0.304163	-0.00668464	0.00778567	0.955665	1.0384	-0.340112	0.0617825	0.10769	0.0679955	-0.382905	-0.0955807	0	0	0.95921	-0.0500463	-0.134812	-0.89528	0.13319	0	0	0.062054	-0.00580792	0.25235	-0.231598	-0.336001	-0.059488	2.18763	1.94957	0	0	-0.755863	-0.217833	-0.103792	2.00138	1.78366	0	0
2.22	-0.302567	-0.0115636	0.0234605	0.958566	1.04277	-0.342952	0.038423	0.105823	0.0411734	-0.382421	-0.153496	0	0	0.931621	-0.019621	-0.116347	-0.789627	0.133917	0	0	0.0662976	0.000496292	0.246397	-0.246348	-0.339067	-0.0563234	2.21539	1.96764	0	0	-0.7654	-0.208408	-0.107179	2.01003	1.79468	0	0
2.23	-0.299451	-0.0169285	0.0351794	0.961193	1.04619	-0.345641	0.0205405	0.105415	0.0204872	-0.39504	-0.196676	0	0	0.900444	0.00594273	-0.0969709	-0.687141	0.133721	0	0	0.0683908	0.00788651	0.243166	-0.261413	-0.343647	-0.0510977	2.23504	1.96173	0	0	-0.772586	-0.197446	-0.110097	2.01719	1.79851	0	0
2.24	-0.295357	-0.0219009	0.04272	0.963109	1.04872	-0.347485	0.00895415	0.106452	0.00806139	-0.421285	-0.224606	0	0	0.867527	0.0255317	-0.078269	-0.590221	0.133884	0	0	0.0675351	0.0139004	0.24184	-0.273897	-0.347502	-0.043984	2.24506	1.94988	0	0	-0.777047	-0.185843	-0.114782	2.02388	1.79787	0	0
2.25	-0.304834	-0.0230336	0.047376	0.962732	1.04989	-0.348369	0.0259982	0.107983	0.0181274	-0.471088	-0.238897	0	0	0.817313	0.0455482	-0.0587811	-0.441201	0.12345	0	0	0.0787981	0.0134447	0.241315	-0.284171	-0.347031	-0.0369244	2.24282	1.94133	0	0	-0.778222	-0.175729	-0.12199	2.0279	1.808	0	0
2.26	-0.300132	-0.0275109	0.0445655	0.963421	1.05048	-0.347861	0.0281465	0.116846	0.0382985	-0.525182	-0.236748	0	0	0.791504	0.0493383	-0.0485587	-0.373862	0.123392	0	0	0.073629	0.0167088	0.24556	-0.292493	-0.345693	-0.0337294	2.23468	1.94046	0	0	-0.777872	-0.165048	-0.129596	2.03384	1.80906	0	0
2.27	-0.293665	-0.0291654	0.0410334	0.963903	1.05021	-0.347301	0.0346909	0.125361	0.0633342	-0.591574	-0.220348	0	0	0.769516	0.0521019	-0.0474249	-0.326962	0.124715	0	0	0.0654574	0.016647	0.248441	-0.300038	-0.342435	-0.0335367	2.21858	1.91691	0	0	-0.77543	-0.154685	-0.136699	2.03848	1.80551	0	0
2.28	-0.289366	-0.0302746	0.037819	0.964208	1.04869	-0.347062	0.0496907	0.134333	0.0861683	-0.668145	-0.198137	0	0	0.755058	0.0539663	-0.0524483	-0.299823	0.125805	0	0	0.0600034	0.0165201	0.24968	-0.310208	-0.337858	-0.0401257	2.19688	1.91049	0	0	-0.771606	-0.145039	-0.142039	2.04085	1.81174	0	0
2.29	-0.286362	-0.0296204	0.0355913	0.964263	1.04595	-0.347167	0.0723804	0.140743	0.101178	-0.754002	-0.174458	0	0	0.743099	0.0569325	-0.0601493	-0.28452	0.127349	0	0	0.0558648	0.0146282	0.248434	-0.32167	-0.332444	-0.0497961	2.1698	1.90133	0	0	-0.766029	-0.136364	-0.14605	2.04178	1.8179	0	0
2.3	-0.286911	-0.0283143	0.0335652	0.963845	1.04176	-0.347262	0.105551	0.144697	0.107306	-0.848054	-0.153679	0	0	0.73649	0.0595654	-0.0661957	-0.280544	0.131653	0	0	0.0555629	0.0117799	0.245359	-0.334194	-0.3262	-0.0604525	2.13814	1.88923	0	0	-0.758919	-0.129322	-0.14903	2.04206	1.81855	0	0
2.31	-0.289027	-0.0293344	0.0318122	0.963115	1.03629	-0.347111	0.144277	0.149197	0.106286	-0.94422	-0.138996	0	0	0.733899	0.0588019	-0.0692692	-0.288671	0.137688	0	0	0.0570313	0.0114145	0.240845	-0.34801	-0.319479	-0.0728457	2.1031	1.89154	0	0	-0.749399	-0.124186	-0.150725	2.04102	1.82357	0	0
2.32	-0.294696	-0.0307216	0.0297371	0.962023	1.02945	-0.346721	0.190933	0.151038	0.09921	-1.04215	-0.128049	0	0	0.73593	0.0558793	-0.0742944	-0.305533	0.135466	0	0	0.0628388	0.0112428	0.235102	-0.36297	-0.312258	-0.0850456	2.06502	1.89406	0	0	-0.738417	-0.121184	-0.151602	2.03907	1.82533	0	0
2.33	-0.300402	-0.0324332	0.0305153	0.960886	1.02162	-0.346475	0.239408	0.148378	0.0839882	-1.13717	-0.118236	0	0	0.740155	0.0539481	-0.074913	-0.333296	0.118805	0	0	0.069169	0.0111857	0.224704	-0.378238	-0.305338	-0.0960643	2.02412	1.88772	0	0	-0.725631	-0.120005	-0.150912	2.03546	1.81263	0	0
2.34	-0.32041	-0.0308856	0.026106	0.959	1.01184	-0.345912	0.308216	0.140355	0.0732828	-1.23472	-0.107854	0	0	0.758699	0.0524179	-0.0821444	-0.364363	0.0874237	0	0	0.0935983	0.00781924	0.218042	-0.397157	-0.297309	-0.107201	1.97924	1.88994	0	0	-0.714361	-0.121534	-0.150697	2.0297	1.81903	0	0
2.35	-0.327585	-0.0288791	0.0262977	0.957649	1.00243	-0.34563	0.361067	0.128583	0.0591886	-1.32345	-0.0934416	0	0	0.775367	0.057124	-0.0720466	-0.423551	0.0763577	0	0	0.10234	0.00333093	0.20488	-0.411838	-0.290622	-0.116849	1.93054	1.88681	0	0	-0.698177	-0.123565	-0.149509	2.02109	1.81576	0	0
2.36	-0.326875	-0.0288356	0.0242642	0.956802	0.992682	-0.344861	0.404942	0.119174	0.0484131	-1.40659	-0.0757642	0	0	0.819405	0.0606288	-0.0558679	-0.552892	0.102218	0	0	0.102	0.000772583	0.191403	-0.424184	-0.285597	-0.125155	1.87937	1.8818	0	0	-0.679962	-0.125642	-0.148353	2.01126	1.80961	0	0
2.37	-0.328393	-0.0229405	0.0274934	0.954793	0.983217	-0.344578	0.454725	0.100393	0.0376102	-1.48678	-0.0581738	0	0	0.847135	0.0759114	-0.0424583	-0.650789	0.147718	0	0	0.101621	-0.0098403	0.170992	-0.43112	-0.279574	-0.130731	1.82082	1.88414	0	0	-0.65656	-0.129247	-0.148082	1.99577	1.80745	0	0
2.38	-0.331489	-0.0151564	0.0330142	0.952126	0.974247	-0.344489	0.508839	0.0785044	0.0298055	-1.56169	-0.042677	0	0	0.870387	0.0924736	-0.037154	-0.739167	0.203518	0	0	0.10179	-0.0230085	0.14745	-0.435049	-0.273183	-0.134453	1.75785	1.89186	0	0	-0.628205	-0.134782	-0.145561	1.97335	1.78683	0	0
2.39	-0.330305	-0.00793004	0.038551	0.949311	0.966882	-0.344472	0.559615	0.0589273	0.0271273	-1.62804	-0.0294991	0	0	0.876358	0.106262	-0.0344566	-0.806354	0.255613	0	0	0.095798	-0.0345387	0.124756	-0.437128	-0.266534	-0.138492	1.69318	1.89502	0	0	-0.591114	-0.142105	-0.139187	1.94082	1.77819	0	0
2.4	-0.330861	-0.00252196	0.0414831	0.946543	0.960712	-0.344332	0.61391	0.0442369	0.0300186	-1.68528	-0.0171954	0	0	0.872479	0.116127	-0.0304289	-0.854557	0.301004	0	0	0.0925938	-0.0423144	0.105618	-0.441194	-0.259204	-0.146381	1.6307	1.91528	0	0	-0.548093	-0.15139	-0.127257	1.89931	1.76904	0	0
2.41	-0.3307	0.00122929	0.0404833	0.944219	0.95611	-0.344019	0.667673	0.0360663	0.0386606	-1.7317	-0.00367308	0	0	0.857084	0.122874	-0.0236288	-0.886337	0.342783	0	0	0.0896798	-0.046093	0.0911265	-0.448211	-0.2517	-0.159329	1.57313	1.95719	0	0	-0.500288	-0.161367	-0.109608	1.85223	1.75409	0	0
2.42	-0.328163	0.00434846	0.0380388	0.942441	0.953386	-0.343864	0.717645	0.0319737	0.0503946	-1.76647	0.0117298	0	0	0.830386	0.128829	-0.0156088	-0.904989	0.380442	0	0	0.0846044	-0.0476905	0.0771721	-0.457344	-0.246682	-0.169081	1.52153	1.96481	0	0	-0.451843	-0.169108	-0.0918696	1.80805	1.75189	0	0
2.43	-0.327888	0.0126082	0.034814	0.940878	0.952396	-0.344222	0.770135	0.0249646	0.068286	-1.79283	0.0317688	0	0	0.795507	0.136738	-0.0163983	-0.905926	0.420721	0	0	0.0825382	-0.0541117	0.0634081	-0.469341	-0.243389	-0.175673	1.47884	1.98815	0	0	-0.408631	-0.174134	-0.0776953	1.77604	1.75884	0	0
2.44	-0.327738	0.0176866	0.0330921	0.939943	0.952875	-0.344788	0.817793	0.0208586	0.0832279	-1.80316	0.0478824	0	0	0.754729	0.142437	-0.015526	-0.896402	0.445846	0	0	0.081714	-0.0566611	0.0450323	-0.486127	-0.244572	-0.177349	1.4536	1.98576	0	0	-0.37897	-0.176355	-0.0721889	1.76909	1.76116	0	0
2.45	-0.328467	0.0201185	0.0309438	0.939467	0.954795	-0.345255	0.861325	0.0194758	0.0953366	-1.79921	0.0600998	0	0	0.710556	0.144821	-0.0135784	-0.878602	0.460141	0	0	0.082996	-0.0556469	0.0258495	-0.508037	-0.247969	-0.178943	1.445	1.97905	0	0	-0.360692	-0.177095	-0.0727646	1.7833	1.76232	0	0
2.46	-0.331087	0.0226547	0.0266806	0.939562	0.958127	-0.345485	0.904027	0.0202587	0.108038	-1.78535	0.073745	0	0	0.659495	0.145259	-0.0125751	-0.845757	0.471648	0	0	0.0886528	-0.0544604	0.00800114	-0.534564	-0.253276	-0.17516	1.45318	1.94174	0	0	-0.353705	-0.17557	-0.0796878	1.81812	1.76686	0	0
2.47	-0.333777	0.0222295	0.0204213	0.940346	0.962694	-0.345366	0.941017	0.0260068	0.117918	-1.75926	0.0864857	0	0	0.604234	0.142223	-0.008452	-0.805572	0.472385	0	0	0.0965973	-0.0491136	-0.00784582	-0.56539	-0.259176	-0.17439	1.47546	1.91487	0	0	-0.352678	-0.172841	-0.087378	1.8637	1.76483	0	0
2.48	-0.336753	0.0200846	0.0128543	0.94174	0.968288	-0.34514	0.971732	0.0349837	0.125922	-1.72161	0.099143	0	0	0.546896	0.136741	-0.00404304	-0.760635	0.45886	0	0	0.106787	-0.0407856	-0.021434	-0.599392	-0.265218	-0.176896	1.50636	1.89238	0	0	-0.354103	-0.169183	-0.0935652	1.91278	1.76001	0	0
2.49	-0.340248	0.017887	0.00440402	0.94363	0.974687	-0.344994	0.99634	0.0450649	0.133732	-1.67331	0.112089	0	0	0.489156	0.130161	-0.00272064	-0.712457	0.428863	0	0	0.119033	-0.0313295	-0.0321041	-0.63558	-0.270447	-0.182318	1.54121	1.86376	0	0	-0.356464	-0.165261	-0.0969774	1.96164	1.74473	0	0
2.5	-0.344671	0.0153619	-0.0048413	0.945867	0.981593	-0.344864	1.01568	0.0556635	0.140835	-1.61512	0.12429	0	0	0.433243	0.122213	-0.00545988	-0.663235	0.382829	0	0	0.133216	-0.0206218	-0.0394347	-0.673303	-0.27331	-0.19312	1.57752	1.84977	0	0	-0.359606	-0.161721	-0.0984316	2.00918	1.73643	0	0
